<?xml version="1.0" standalone="no"?>
<!DOCTYPE svg PUBLIC "-//W3C//DTD SVG 20010904//EN"
 "http://www.w3.org/TR/2001/REC-SVG-20010904/DTD/svg10.dtd">
<svg version="1.0" xmlns="http://www.w3.org/2000/svg"
 width="300.000000pt" height="255.000000pt" viewBox="0 0 300.000000 255.000000"
 preserveAspectRatio="xMidYMid meet">
<metadata>
Created by potrace 1.10, written by Peter Selinger 2001-2011
</metadata>
<g transform="translate(0.000000,255.000000) scale(0.100000,-0.100000)"
fill="#000000" stroke="none">
<path d="M2644 2166 c-63 -29 -100 -76 -209 -266 -43 -74 -102 -177 -132 -228
l-54 -92 -61 42 c-108 76 -189 183 -227 300 -15 46 -34 62 -65 54 -33 -8 -39
-32 -21 -89 38 -126 135 -252 256 -333 46 -31 68 -51 65 -61 -3 -7 -61 -109
-129 -226 -68 -117 -129 -222 -135 -233 -6 -12 -32 -119 -58 -239 l-46 -218
-79 -134 c-44 -73 -83 -141 -87 -152 -6 -18 -12 -16 -71 30 -35 27 -67 49 -71
49 -13 0 -40 -30 -40 -44 0 -7 28 -35 63 -62 86 -70 112 -85 129 -79 8 3 63
88 121 188 l107 182 176 140 c136 108 183 151 204 189 l28 48 17 -58 c31 -110
91 -219 158 -287 34 -36 71 -69 82 -75 20 -11 20 -11 -2 -27 -29 -21 -30 -61
-3 -70 23 -7 114 45 124 71 11 28 7 33 -46 67 -74 47 -151 135 -193 220 -37
76 -75 195 -75 237 0 14 30 74 66 135 36 60 75 127 86 148 l20 39 39 -43 c88
-96 135 -187 169 -326 12 -48 27 -94 32 -101 16 -19 46 -14 62 10 13 20 13 32
0 93 -31 152 -117 312 -209 393 -25 22 -45 42 -45 44 0 7 190 331 200 341 14
16 50 -31 50 -65 0 -40 -36 -120 -92 -206 -45 -69 -44 -97 3 -97 48 0 169 221
169 307 0 57 -28 100 -88 133 -1 1 14 33 34 71 33 64 36 74 32 141 -3 64 -7
76 -33 104 -60 63 -135 75 -221 35z m141 -62 c21 -8 45 -56 45 -91 0 -16 -15
-58 -32 -95 l-33 -66 -97 56 c-54 31 -98 60 -98 65 0 19 64 100 93 118 32 19
90 25 122 13z m-852 -221 c10 -47 78 -150 144 -218 35 -36 67 -65 72 -65 5 0
17 -7 26 -16 8 -9 33 -18 55 -21 44 -6 47 -10 26 -38 -13 -18 -14 -18 -37 7
-13 14 -42 37 -64 52 -72 48 -163 146 -198 215 -40 77 -52 111 -39 111 5 0 12
-12 15 -27z m700 -37 c93 -56 97 -60 84 -80 -8 -11 -123 -208 -257 -436 -134
-228 -244 -417 -246 -418 -4 -6 -205 111 -202 118 13 29 514 879 518 877 3 -1
49 -28 103 -61z m188 -62 c8 -9 5 -11 -10 -7 -12 3 -27 0 -35 -6 -11 -9 -16
-6 -25 19 -11 32 -11 31 29 43 9 2 18 -5 23 -17 4 -11 12 -25 18 -32z m-243
-419 c23 -37 23 -41 -6 -26 -9 5 -25 12 -35 15 -15 5 -16 9 -5 26 17 26 19 26
46 -15z m172 -239 c0 -7 9 -31 20 -54 23 -47 24 -52 10 -52 -5 0 -10 8 -10 18
-1 9 -9 35 -20 57 -22 45 -25 59 -10 50 6 -3 10 -12 10 -19z m-411 -178 c1
-15 -3 -16 -24 -6 -30 13 -30 16 -8 48 l17 24 7 -24 c4 -14 7 -33 8 -42z
m-335 3 c3 -5 37 -27 76 -50 38 -23 70 -45 70 -49 0 -4 -23 -25 -52 -47 -28
-22 -80 -64 -115 -93 -34 -29 -63 -48 -63 -42 0 5 14 71 30 145 17 74 30 137
30 140 0 8 18 6 24 -4z m211 -91 c-19 -21 -35 -18 -35 6 0 9 10 14 27 14 25 0
26 -1 8 -20z m-310 -250 c-32 -36 -44 -24 -25 26 10 25 12 26 27 11 15 -15 15
-18 -2 -37z"/>
<path d="M315 1936 c-38 -17 -60 -41 -80 -89 -13 -31 -15 -116 -15 -605 l0
-568 23 -44 c16 -33 34 -51 67 -68 l45 -23 555 3 555 3 37 23 c21 13 45 40 57
66 20 41 21 56 21 612 l0 570 -22 44 c-17 33 -35 51 -68 68 l-44 22 -551 0
c-434 -1 -556 -4 -580 -14z m1164 -92 c21 -26 21 -35 21 -605 l0 -578 -26 -20
c-26 -21 -35 -21 -576 -21 l-549 0 -24 25 -25 24 0 580 0 580 22 21 c21 20 32
20 579 20 l558 0 20 -26z"/>
<path d="M626 1670 c-49 -49 -91 -90 -93 -90 -3 0 -14 11 -25 25 -32 40 -56
50 -79 29 -10 -9 -19 -21 -19 -26 0 -17 103 -118 119 -118 9 0 67 51 130 114
103 103 112 115 102 135 -7 11 -20 21 -30 21 -9 0 -57 -40 -105 -90z"/>
<path d="M855 1620 c-15 -48 0 -51 258 -48 208 3 241 5 250 19 6 9 7 24 4 33
-6 14 -34 16 -256 16 -243 0 -250 -1 -256 -20z"/>
<path d="M625 1300 l-89 -89 -38 34 c-44 40 -63 44 -79 14 -10 -19 -5 -28 47
-80 32 -33 63 -59 69 -59 14 0 235 223 235 236 0 15 -22 34 -40 34 -8 0 -56
-40 -105 -90z"/>
<path d="M862 1268 c-16 -16 -15 -43 2 -57 9 -8 84 -11 251 -9 214 3 239 5
249 21 8 12 8 22 0 35 -10 15 -35 17 -250 20 -178 2 -243 -1 -252 -10z"/>
<path d="M626 940 c-49 -49 -92 -90 -95 -90 -4 0 -20 14 -36 30 -16 17 -36 30
-45 30 -17 0 -40 -19 -40 -33 0 -16 103 -117 119 -117 15 0 241 217 241 232 0
11 -31 38 -44 38 -7 0 -52 -40 -100 -90z"/>
<path d="M859 894 c-9 -11 -10 -20 -2 -32 9 -15 38 -17 259 -17 l249 0 0 30 0
30 -246 3 c-216 2 -248 0 -260 -14z"/>
<path d="M1705 120 c-16 -50 -17 -50 474 -48 l456 3 0 30 0 30 -462 3 c-458 2
-462 2 -468 -18z"/>
</g>
</svg>
